<?xml version="1.0" encoding="UTF-8"?>
<!-- Generator: Adobe Illustrator 21.1.0, SVG Export Plug-In . SVG Version: 6.00 Build 0)  -->
<svg version="1.2" baseProfile="tiny" id="Ebene_2" xmlns="http://www.w3.org/2000/svg" xmlns:xlink="http://www.w3.org/1999/xlink" x="0px" y="0px" viewBox="0 0 285 12" xml:space="preserve">
<path fill="#C6C6C6" d="M1,12H0V0h1V12z M6,0H5v5h1V0z M11,0h-1v5h1V0z M16,0h-1v5h1V0z M21,0h-1v5h1V0z M26,0h-1v5h1V0z M31,0h-1v5  h1V0z M36,0h-1v5h1V0z M41,0h-1v5h1V0z M46,0h-1v5h1V0z M51,0h-1v5h1V0z M56,0h-1v5h1V0z M61,0h-1v5h1V0z M66,0h-1v5h1V0z M71,0h-1  v5h1V0z M76,0h-1v5h1V0z M81,0h-1v5h1V0z M86,0h-1v5h1V0z M91,0h-1v5h1V0z M96,0h-1v5h1V0z M101,0h-1v5h1V0z M106,0h-1v5h1V0z   M111,0h-1v5h1V0z M116,0h-1v5h1V0z M121,0h-1v5h1V0z M126,0h-1v5h1V0z M131,0h-1v5h1V0z M136,0h-1v5h1V0z M141,0h-1v5h1V0z M146,0  h-1v5h1V0z M151,0h-1v5h1V0z M156,0h-1v5h1V0z M161,0h-1v5h1V0z M166,0h-1v5h1V0z M171,0h-1v5h1V0z M176,0h-1v5h1V0z M181,0h-1v5h1  V0z M186,0h-1v5h1V0z M191,0h-1v5h1V0z M196,0h-1v5h1V0z M201,0h-1v5h1V0z M206,0h-1v5h1V0z M211,0h-1v5h1V0z M216,0h-1v5h1V0z   M221,0h-1v5h1V0z M226,0h-1v5h1V0z M231,0h-1v5h1V0z M236,0h-1v5h1V0z M241,0h-1v5h1V0z M246,0h-1v5h1V0z M251,0h-1v5h1V0z M256,0  h-1v5h1V0z M261,0h-1v5h1V0z M266,0h-1v5h1V0z M271,0h-1v5h1V0z M276,0h-1v5h1V0z M281,0h-1v5h1V0z"/>
</svg>