<?xml version="1.0" encoding="UTF-8"?>
<!-- Generator: Adobe Illustrator 21.1.0, SVG Export Plug-In . SVG Version: 6.00 Build 0)  -->
<svg version="1.2" baseProfile="tiny" id="Ebene_2" xmlns="http://www.w3.org/2000/svg" xmlns:xlink="http://www.w3.org/1999/xlink" x="0px" y="0px" viewBox="0 0 285 25" xml:space="preserve">
<path fill="#C6C6C6" d="M1,25H0V13h1V25z M6,13H5v5h1V13z M11,13h-1v5h1V13z M16,13h-1v5h1V13z M21,13h-1v5h1V13z M26,13h-1v5h1V13z   M31,13h-1v5h1V13z M36,13h-1v5h1V13z M41,13h-1v5h1V13z M46,13h-1v5h1V13z M51,13h-1v5h1V13z M56,13h-1v5h1V13z M61,13h-1v5h1V13z   M66,13h-1v5h1V13z M71,13h-1v5h1V13z M76,13h-1v5h1V13z M81,13h-1v5h1V13z M86,13h-1v5h1V13z M91,13h-1v5h1V13z M96,13h-1v5h1V13z   M101,13h-1v5h1V13z M106,13h-1v5h1V13z M111,13h-1v5h1V13z M116,13h-1v5h1V13z M121,13h-1v5h1V13z M126,13h-1v5h1V13z M131,13h-1v5  h1V13z M136,13h-1v5h1V13z M141,13h-1v5h1V13z M146,13h-1v5h1V13z M151,13h-1v5h1V13z M156,13h-1v5h1V13z M161,13h-1v5h1V13z   M166,13h-1v5h1V13z M171,13h-1v5h1V13z M176,13h-1v5h1V13z M181,13h-1v5h1V13z M186,13h-1v5h1V13z M191,13h-1v5h1V13z M196,13h-1v5  h1V13z M201,13h-1v5h1V13z M206,13h-1v5h1V13z M211,13h-1v5h1V13z M216,13h-1v5h1V13z M221,13h-1v5h1V13z M226,13h-1v5h1V13z   M231,13h-1v5h1V13z M236,13h-1v5h1V13z M241,13h-1v5h1V13z M246,13h-1v5h1V13z M251,13h-1v5h1V13z M256,13h-1v5h1V13z M261,13h-1v5  h1V13z M266,13h-1v5h1V13z M271,13h-1v5h1V13z M276,13h-1v5h1V13z M281,13h-1v5h1V13z"/>
<path fill="#C6C6C6" d="M1,12H0V0h1V12z M6,7H5v5h1V7z M11,7h-1v5h1V7z M16,7h-1v5h1V7z M21,7h-1v5h1V7z M26,7h-1v5h1V7z M31,7h-1v5  h1V7z M36,7h-1v5h1V7z M41,7h-1v5h1V7z M46,7h-1v5h1V7z M51,7h-1v5h1V7z M56,7h-1v5h1V7z M61,7h-1v5h1V7z M66,7h-1v5h1V7z M71,7h-1  v5h1V7z M76,7h-1v5h1V7z M81,7h-1v5h1V7z M86,7h-1v5h1V7z M91,7h-1v5h1V7z M96,7h-1v5h1V7z M101,7h-1v5h1V7z M106,7h-1v5h1V7z   M111,7h-1v5h1V7z M116,7h-1v5h1V7z M121,7h-1v5h1V7z M126,7h-1v5h1V7z M131,7h-1v5h1V7z M136,7h-1v5h1V7z M141,7h-1v5h1V7z M146,7  h-1v5h1V7z M151,7h-1v5h1V7z M156,7h-1v5h1V7z M161,7h-1v5h1V7z M166,7h-1v5h1V7z M171,7h-1v5h1V7z M176,7h-1v5h1V7z M181,7h-1v5h1  V7z M186,7h-1v5h1V7z M191,7h-1v5h1V7z M196,7h-1v5h1V7z M201,7h-1v5h1V7z M206,7h-1v5h1V7z M211,7h-1v5h1V7z M216,7h-1v5h1V7z   M221,7h-1v5h1V7z M226,7h-1v5h1V7z M231,7h-1v5h1V7z M236,7h-1v5h1V7z M241,7h-1v5h1V7z M246,7h-1v5h1V7z M251,7h-1v5h1V7z M256,7  h-1v5h1V7z M261,7h-1v5h1V7z M266,7h-1v5h1V7z M271,7h-1v5h1V7z M276,7h-1v5h1V7z M281,7h-1v5h1V7z"/>
<rect y="12" fill="#C6C6C6" width="285" height="1"/>
</svg>